<svg id="eNlMVPZBUrD1" xmlns="http://www.w3.org/2000/svg" xmlns:xlink="http://www.w3.org/1999/xlink" viewBox="0 0 300 300" shape-rendering="geometricPrecision" text-rendering="geometricPrecision" project-id="d779cb857ab04eb19af72c7ab3b5c6b6" export-id="f8d960d4a5594943b39978b4bc95f933" cached="false"><path d="M21.46027,104.90027c0-43.65492,37.3739-79.04422,83.47694-79.04422s83.47694,35.3893,83.47694,79.04422-37.3739,79.04422-83.47694,79.04422-83.47694-35.3893-83.47694-79.04422Z" transform="matrix(.911506 0 0 0.944865 4.853888 2.8655)" fill="rgba(255,255,255,0)" stroke="#000" stroke-width="10"/><g><rect width="174.341295" height="175.080029" rx="0" ry="0" transform="translate(108.63086 101.982097)" fill="rgba(255,255,255,0)" stroke="#000" stroke-width="10"/></g><ellipse rx="19.207092" ry="20.315194" transform="matrix(.692308 0 0 0.656361 121.928083 163.334101)" stroke-width="0"/><rect width="67.963575" height="19.909063" rx="0" ry="0" transform="translate(108.630861 101.982097)" stroke-width="0"/><rect width="67.963576" height="9.603546" rx="0" ry="0" transform="translate(108.63086 121.89116)" stroke-width="0"/><rect width="41.369139" height="41.442941" rx="0" ry="0" transform="translate(108.63086 121.89116)" stroke-width="0"/><rect width="28.071912" height="20.72147" rx="0" ry="0" transform="translate(142.612648 121.89116)" stroke-width="0"/><rect width="28.810646" height="13.334154" rx="0" ry="0" transform="translate(135.225306 136.665846)" stroke-width="0"/><rect width="21.423298" height="13.260308" rx="0" ry="0" transform="translate(135.225306 142.61263)" stroke-width="0"/></svg>
