<svg id="ePo6GSqEWgL1" xmlns="http://www.w3.org/2000/svg" xmlns:xlink="http://www.w3.org/1999/xlink" viewBox="0 0 300 300" shape-rendering="geometricPrecision" text-rendering="geometricPrecision" project-id="d779cb857ab04eb19af72c7ab3b5c6b6" export-id="e233e0bade9247f5812b44171d468de5" cached="false"><path d="M21.46027,104.90027c0-43.65492,37.3739-79.04422,83.47694-79.04422s83.47694,35.3893,83.47694,79.04422-37.3739,79.04422-83.47694,79.04422-83.47694-35.3893-83.47694-79.04422Z" transform="matrix(.911506 0 0 0.944865 4.853888 2.8655)" fill="rgba(0,0,0,0)" stroke="#000" stroke-width="10"/><line x1="-53.188819" y1="0" x2="53.188819" y2="0" transform="translate(229.783336 101.982094)" fill="none" stroke="#000" stroke-width="10"/><line x1="0" y1="-87.540016" x2="0" y2="87.540016" transform="translate(282.972155 189.52211)" fill="none" stroke="#000" stroke-width="10"/><line x1="87.170648" y1="0" x2="-87.170647" y2="0" transform="translate(195.801508 277.062126)" fill="none" stroke="#000" stroke-width="10"/><line x1="0" y1="50.196958" x2="0" y2="-50.196957" transform="translate(108.630861 226.865168)" fill="none" stroke="#000" stroke-width="10"/><rect width="10.390826" height="5.950102" rx="0" ry="0" transform="translate(277.525893 97.031992)" stroke-width="0"/><rect width="5.195413" height="5.157651" rx="0" ry="0" transform="translate(282.721307 276.9)" stroke-width="0"/><rect width="5.195413" height="5.157651" rx="0" ry="0" transform="translate(103.6 276.9)" stroke-width="0"/><rect width="106.126789" height="174.917906" rx="0" ry="0" transform="translate(172.399104 100.007043)" stroke-width="0"/><rect width="77.614532" height="100.231789" rx="0" ry="0" transform="translate(108.630861 176.668212)" stroke-width="0"/><rect width="51.592412" height="6.254627" rx="0" ry="0" transform="translate(125.002105 170.413586)" stroke-width="0"/><rect width="38.729953" height="5.456802" rx="0" ry="0" transform="translate(137.864564 164.956784)" stroke-width="0"/><rect width="29.15639" height="5.456801" rx="0" ry="0" transform="translate(147.438127 160.499983)" stroke-width="0"/><rect width="19.364977" height="9.499983" rx="0" ry="0" transform="translate(157.229541 150.000001)" stroke-width="0"/><rect width="9.682488" height="18.246526" rx="0" ry="0" transform="translate(166.91203 136.503467)" stroke-width="0"/><rect width="25.796206" height="8.478391" rx="0" ry="0" transform="translate(150.798311 154.749993)" stroke-width="0"/><rect width="9.736952" height="9.123263" rx="0" ry="0" transform="translate(162.016322 145.62673)" stroke-width="0"/></svg>
